<svg xmlns="http://www.w3.org/2000/svg" viewBox="0 0 1920 1080"><defs><style>.cls-1{fill:#e1a701;}.cls-10,.cls-2,.cls-5{fill:none;}.cls-10,.cls-2{stroke:#000;stroke-miterlimit:10;}.cls-3{font-size:10px;font-family:SourceHanSansCN-ExtraLight-GBpc-EUC-H, Source Han Sans CN;}.cls-4{font-size:18.81px;font-family:SourceHanSansCN-Heavy-GBpc-EUC-H, Source Han Sans CN;}.cls-6{opacity:0.85;}.cls-7{fill:#202020;}.cls-8{fill:#fff;}.cls-9{fill:#ccc;}.cls-10{stroke-linecap:square;stroke-width:7px;}</style></defs><title>teagame</title><g id="Layer_1" data-name="Layer 1"><rect class="cls-1" width="1920" height="1080"/></g><g id="Layer_2" data-name="Layer 2"><path d="M1878.29,30a8.5,8.5,0,0,1,1.55.94,9.22,9.22,0,0,0,4.49.73c2.26,0,5-.11,6.82-.28a2.15,2.15,0,0,0-.2.68c-1.53.09-4.84.18-6.62.18a9.48,9.48,0,0,1-4.72-.82c-.66-.4-1.18-.93-1.57-.93-.64,0-1.55.79-2.55,1.89l-.41-.49a6.34,6.34,0,0,1,2.69-1.9V23.41h-2.6v-.55h3.12Zm-.07-10.18a13.27,13.27,0,0,0-2.62-2.92l.41-.28a14,14,0,0,1,2.64,2.86Zm11.45,9.8c-1-1.07-2.55-2.48-4.24-3.93a15.26,15.26,0,0,1-5.75,4,2.65,2.65,0,0,0-.36-.51,13.89,13.89,0,0,0,5.68-3.82c-1.6-1.37-3.35-2.73-4.91-3.88l.39-.33c1.57,1.12,3.28,2.46,4.88,3.78a15.62,15.62,0,0,0,2.72-5.46h-8.56v-.54H1891v.54h-2.34a15.93,15.93,0,0,1-2.88,5.8c1.71,1.43,3.29,2.84,4.34,3.93Zm-4.33-11.06a16.75,16.75,0,0,0-1.48-2.75l.48-.15a15.87,15.87,0,0,1,1.48,2.67Z"/><path d="M1890.31,52.72c-.32,9.1-.62,12.21-1.41,13.09a1.47,1.47,0,0,1-1.3.55c-.66,0-1.94,0-3.18-.13a1.28,1.28,0,0,0-.18-.57c1.47.13,2.85.13,3.31.13a.93.93,0,0,0,.85-.26c.72-.73,1.07-3.82,1.37-12.68h-10.84a20.75,20.75,0,0,1-3.31,5.3,2.64,2.64,0,0,0-.46-.37,21.42,21.42,0,0,0,4.52-8.47l.53.13a25,25,0,0,1-1,2.86h11.15Zm-11.17,9.74v1.43h-.51V56h6.55v6.45Zm0-5.9v5.36h5.52V56.56Z"/><path d="M1880.69,96.1c.06.13.16.34.22.45-2.83,2.07-3.19,2.33-3.4,2.63a3.44,3.44,0,0,0-.4-.47,2,2,0,0,0,.89-1.58V89.51h-2.88V89h3.4v8.65Zm-2-9.5a19.66,19.66,0,0,0-2.39-2.62l.36-.34a20.23,20.23,0,0,1,2.4,2.52Zm7.33,2.82v3.69h3.8v6.71h-.52v-.77h-7.12v.85h-.52V93.11h3.85V89.42h-4.65v-.55h4.65V84.71c-1.54.29-3.19.53-4.67.72a3.17,3.17,0,0,0-.2-.49,45.48,45.48,0,0,0,8.82-1.82l.44.45a27.61,27.61,0,0,1-3.88,1v4.27h5.06v.55Zm3.28,4.23h-7.12v4.86h7.12Z"/><path d="M1890.93,121.85v.55h-13.32v.54c0,3.07-.27,7.43-2.21,10.63a1.37,1.37,0,0,0-.42-.41c1.9-3,2.12-7.21,2.12-10.22v-4.55a89.26,89.26,0,0,0,12-1.55l.5.44a87,87,0,0,1-12,1.56v3Zm-11.27,3.84h9.85v7.88H1889v-1.09h-8.81v1.09h-.52Zm.52.54v5.7H1889v-5.7Z"/><path d="M1883.93,159.23a20.24,20.24,0,0,0,7.34,6.56,5.9,5.9,0,0,0-.39.46,21.72,21.72,0,0,1-7.52-7h0v7.92h-.52v-7.92a20.72,20.72,0,0,1-7.41,6.94,1.73,1.73,0,0,0-.39-.43,19.42,19.42,0,0,0,7.21-6.51h-6.9v-.55h7.49v-5.42h-6.64v-.54h6.64v-2.48h.52v2.48h6.82v.54h-6.82v5.42h7.6v.55Zm-5.62-5.1a16.49,16.49,0,0,1,1.87,3.78l-.48.23a15.74,15.74,0,0,0-1.84-3.82ZM1886,158a28,28,0,0,0,2.09-4l.51.24a29.86,29.86,0,0,1-2.17,4Z"/><path d="M1877.68,191.19a19.6,19.6,0,0,0-2.63-1.58l.35-.4a23.83,23.83,0,0,1,2.62,1.51Zm-2.06,8.77a55.67,55.67,0,0,0,2.76-6.08l.43.36c-.77,1.95-1.87,4.44-2.71,6.11Zm.85-15.83a22.23,22.23,0,0,1,2.71,1.64l-.36.45a21.5,21.5,0,0,0-2.72-1.71Zm7.21,13.93a19.37,19.37,0,0,1-4.13,2.67,1.88,1.88,0,0,0-.41-.45,15.57,15.57,0,0,0,4.06-2.43Zm-3.34-9.49h-.52V186H1885a14.11,14.11,0,0,0-1-1.9l.45-.23a9.85,9.85,0,0,1,1.1,2.13h5v2.61h-.51V186.5h-9.74Zm4.48,2.62v-1.88H1881v-.55h8.26v.55h-3.92v1.88h4.54v6h-9.44v-6Zm-3.86,2.73h3.86v-2.19H1881Zm0,2.76h3.86v-2.22H1881Zm4.38-5v2.19h4v-2.19Zm4,2.73h-4v2.22h4Zm-2.48,3.33a25.9,25.9,0,0,1,3.86,2.47l-.33.43a28.92,28.92,0,0,0-3.85-2.52Z"/><path d="M1888.35,227.14a12.09,12.09,0,0,1-4.75,4.57A22.81,22.81,0,0,0,1891,234a2.48,2.48,0,0,0-.3.49,22.51,22.51,0,0,1-7.64-2.47,26.43,26.43,0,0,1-7.43,2.48,2.65,2.65,0,0,0-.32-.5,26.21,26.21,0,0,0,7.21-2.3,12.23,12.23,0,0,1-4.34-4.23h-1.48v-.55h11.15l.14,0Zm-7.48-7.1h-5.34v-.54h7.83a13.15,13.15,0,0,0-1.14-2l.47-.17a12.88,12.88,0,0,1,1.24,2.15h6.75V220h-5.38v6.19h-.51V220h-3.38v6.23h-.54Zm-1.58,1.26a13.87,13.87,0,0,1-2.59,4.24,2.46,2.46,0,0,0-.46-.32,12,12,0,0,0,2.53-4.05Zm-.5,6.14a12.12,12.12,0,0,0,4.27,4,11.68,11.68,0,0,0,4.44-4Zm8.42-6.06a22.82,22.82,0,0,1,3.08,4l-.48.22a24.29,24.29,0,0,0-3-4.06Z"/><path d="M1889.76,257.35a20.59,20.59,0,0,1-3.24,6.36c.81,2.33,1.87,3.65,3.13,3.65.6,0,.84-1,1-3.65a1.51,1.51,0,0,0,.48.26c-.14,2.94-.41,3.95-1.48,3.95-1.46,0-2.61-1.37-3.47-3.74a16.57,16.57,0,0,1-4.4,3.76,4.07,4.07,0,0,0-.41-.43,15.33,15.33,0,0,0,4.62-3.93,36.61,36.61,0,0,1-1.39-8.34h-7.22v2.92h4.72v.35c-.1,4.5-.21,6-.55,6.46a1.11,1.11,0,0,1-.91.36,21.53,21.53,0,0,1-2.2-.08,1.37,1.37,0,0,0-.18-.55c1,.1,1.94.1,2.26.1s.46,0,.57-.17c.28-.32.41-1.79.5-5.93h-4.21v1.08c0,2.48-.24,5.92-1.86,8.33a1.91,1.91,0,0,0-.43-.36c1.58-2.35,1.78-5.57,1.78-8V254.7h7.69c-.07-1.15-.1-2.32-.12-3.54h.53c0,1.22,0,2.41.11,3.54H1891v.54h-5.9a35.88,35.88,0,0,0,1.27,7.85,20,20,0,0,0,2.88-5.89Zm0-3.18a18.73,18.73,0,0,0-3.51-2.33l.3-.38a19.4,19.4,0,0,1,3.51,2.28Z"/><path d="M1877,288.55a16.83,16.83,0,0,1-1.81,4.11,3.45,3.45,0,0,0-.5-.29,18.71,18.71,0,0,0,2.63-7.56l.54.1c-.2,1.09-.43,2.12-.7,3.1h4.1l.12,0,.36.17a21.08,21.08,0,0,1-1.44,3.73l-.48-.21a16.55,16.55,0,0,0,1.21-3.11Zm4,9.47.18.43c-3.44,2.32-3.81,2.56-4,2.84a2.15,2.15,0,0,0-.41-.45,2.18,2.18,0,0,0,.93-1.64v-8.27h.52v8.86Zm5.45-7c0,.43,0,.85,0,1.3.67,4.23,2.2,7.67,5,9a2.58,2.58,0,0,0-.35.45c-2.48-1.29-4-4.12-4.76-7.75a11.09,11.09,0,0,1-5,7.87,1.64,1.64,0,0,0-.39-.4c4.75-3.25,5-7.43,5-10.44v-1.2h.51Zm-2.33-2.67a16.54,16.54,0,0,1-1.78,3.65,3.05,3.05,0,0,0-.48-.3,17.13,17.13,0,0,0,2.65-6.95l.54.1c-.22,1-.47,2-.75,2.95h6l.1,0,.34.16a29.64,29.64,0,0,1-1,3.42l-.46-.13a21.93,21.93,0,0,0,.78-2.86Z"/><path d="M1881.37,323.56c-.94,4.74-3.21,8-5.75,9.77a1.61,1.61,0,0,0-.41-.45c2.47-1.62,4.59-4.69,5.48-8.9h-5v-.55h5.2l.12,0Zm8.12-1a34.36,34.36,0,0,1-3.9,4.51,17.57,17.57,0,0,0,5.84,5.67,2.66,2.66,0,0,0-.41.47c-2.94-1.66-5.88-5.36-7.66-9.15v10.33c0,.59-.17.79-.53.91a11.24,11.24,0,0,1-2.35.11,3.59,3.59,0,0,0-.23-.59c1.07,0,2,0,2.19,0s.39-.09.39-.41V318.45h.53V323a24.4,24.4,0,0,0,2,3.71,36.85,36.85,0,0,0,3.67-4.5Z"/><path d="M45.89,491.07a30.23,30.23,0,0,1-2,4.18v12.53H43.4V496.13A21.52,21.52,0,0,1,41,499.31a2.28,2.28,0,0,0-.39-.45,22.65,22.65,0,0,0,4.78-7.94ZM52,495.29v11.62c0,.51-.14.7-.47.81a8.52,8.52,0,0,1-2.1.12,4.22,4.22,0,0,0-.21-.59c.94,0,1.73,0,2,0s.3-.07.3-.32V495.29H48.08a16.34,16.34,0,0,1-1.74,3.63,3.25,3.25,0,0,0-.45-.32A21.64,21.64,0,0,0,48.74,491l.53.11a31.26,31.26,0,0,1-1,3.67h8.33l.13,0,.32.15c-.25,1.23-.57,2.75-.8,3.63l-.45-.11c.18-.77.41-2,.62-3.08Zm-6.13,9.59a17.21,17.21,0,0,0,2.73-6.32l.55.11a19.58,19.58,0,0,1-2.8,6.55Zm8.55-6.41A25.91,25.91,0,0,1,57,505l-.5.17A28.3,28.3,0,0,0,54,498.64Z"/><path d="M45.89,536.92H42.28v1.43h-.52v-12h4.13Zm-3.61-10.07v9.52h3.1v-9.52Zm6.91,1.34a16.53,16.53,0,0,1-1.86,3.31,3.48,3.48,0,0,0-.49-.38,17,17,0,0,0,3-6.64l.56.11a28.6,28.6,0,0,1-1,3H57v.55Zm6.39,12.41c.84,0,1-.41,1.07-3a2.11,2.11,0,0,0,.53.24c-.12,3-.39,3.37-1.6,3.37h-6c-1.42,0-2.06-.43-2.06-1.3s.26-1.86,7.05-8h-6v-.52h6.71l.13,0,.41.21a.43.43,0,0,1-.15.15c-7.08,6.41-7.56,7.46-7.56,8.12s.57.77,1.44.77Z"/><path d="M44.29,572.41a9.13,9.13,0,0,1,1.55.94,9.1,9.1,0,0,0,4.49.74c2.26,0,5-.11,6.82-.28a2.17,2.17,0,0,0-.2.67c-1.53.1-4.84.19-6.62.19a9.36,9.36,0,0,1-4.72-.83c-.66-.39-1.18-.92-1.57-.92-.64,0-1.55.79-2.55,1.88l-.41-.49a6.4,6.4,0,0,1,2.69-1.9v-6.54h-2.6v-.55h3.12Zm-.07-10.17a13.27,13.27,0,0,0-2.62-2.92L42,559a14,14,0,0,1,2.64,2.86ZM55.67,572c-1-1.07-2.55-2.49-4.24-3.93a15.13,15.13,0,0,1-5.75,4,2.6,2.6,0,0,0-.36-.5A14,14,0,0,0,51,567.77c-1.6-1.38-3.35-2.73-4.91-3.88l.39-.34c1.57,1.13,3.28,2.47,4.88,3.78a15.49,15.49,0,0,0,2.72-5.45H45.52v-.55H57v.55H54.65a15.81,15.81,0,0,1-2.88,5.79,57,57,0,0,1,4.34,3.94ZM51.34,561a17.11,17.11,0,0,0-1.48-2.74l.48-.15a15.87,15.87,0,0,1,1.48,2.67Z"/><path d="M56.31,595.17c-.32,9.11-.62,12.21-1.41,13.1a1.46,1.46,0,0,1-1.3.54c-.66,0-1.94,0-3.19-.13a1.15,1.15,0,0,0-.17-.56c1.47.13,2.85.13,3.31.13a1,1,0,0,0,.85-.26c.72-.74,1.07-3.82,1.37-12.68H44.93a20.75,20.75,0,0,1-3.31,5.3,2.4,2.4,0,0,0-.47-.37,21.38,21.38,0,0,0,4.53-8.47l.53.13a25,25,0,0,1-1.05,2.86H56.31Zm-11.17,9.75v1.43h-.51v-7.88h6.55v6.45Zm0-5.91v5.37h5.52V599Z"/><path d="M46.69,638.55c.06.14.16.34.22.46-2.83,2.07-3.19,2.33-3.4,2.63a2.93,2.93,0,0,0-.4-.47,2,2,0,0,0,.89-1.58V632H41.12v-.55h3.4v8.66Zm-2-9.5a20.27,20.27,0,0,0-2.39-2.61l.36-.34a19.55,19.55,0,0,1,2.4,2.52Zm7.33,2.83v3.68h3.8v6.72h-.52v-.77H48.21v.85h-.52v-6.8h3.85v-3.68H46.89v-.55h4.65v-4.16c-1.54.28-3.19.53-4.67.72a3.06,3.06,0,0,0-.19-.49,45.46,45.46,0,0,0,8.81-1.83l.44.45a26.2,26.2,0,0,1-3.88,1v4.27h5.06v.55Zm3.28,4.23H48.21V641h7.12Z"/><rect class="cls-2" x="1644.5" y="751.42" width="217" height="328.17"/><line class="cls-2" x1="1807.25" y1="751" x2="1807.25" y2="1079.17"/><line class="cls-2" x1="1753" y1="751.83" x2="1753" y2="1080"/><line class="cls-2" x1="1698.75" y1="751.83" x2="1698.75" y2="1080"/><text class="cls-3" transform="translate(1664.86 774.03) scale(0.95 1)">来<tspan x="0" y="16">演</tspan><tspan x="0" y="32">变</tspan><tspan x="0" y="48">成 </tspan><tspan x="0" y="64">饮</tspan><tspan x="0" y="80">水</tspan><tspan x="0" y="96">思</tspan><tspan x="0" y="112">源 </tspan><tspan x="0" y="128">这</tspan><tspan x="0" y="144">个</tspan><tspan x="0" y="160">成</tspan><tspan x="0" y="176">语</tspan><tspan x="0" y="224">意</tspan><tspan x="0" y="240">为</tspan><tspan x="0" y="256">喝</tspan><tspan x="0" y="272">水</tspan><tspan x="0" y="288">的</tspan><tspan x="0" y="304">时</tspan><tspan x="0" y="320">了</tspan></text><text class="cls-4" transform="translate(1825.69 785.12) scale(0.95 1)">意<tspan x="0" y="40">为</tspan><tspan x="0" y="80">喝</tspan><tspan x="0" y="120">水</tspan></text><path d="M1744.91,776.31v1.27h-35.08v-1.27h22.55a47.83,47.83,0,0,0,2.8-5.66l1.16.48c-.83,1.74-1.7,3.62-2.56,5.18ZM1710,802.7c2.1-1.91,3.79-5.22,4.82-7.66l1,.48c-1.07,2.48-2.68,5.79-4.74,7.84Zm32.89-32.09h-31.33v-1.27H1728a26.2,26.2,0,0,0-2.31-3.74l1.07-.48a29.61,29.61,0,0,1,2.72,4.22h13.44Zm-3.05,21.86h-25V780.36h25Zm-1.2-10.84H1716v4.13h22.63Zm0,5.4H1716v4.18h22.63Zm-18.26-10.76a18.77,18.77,0,0,0-2.18-5l1.11-.44a18.61,18.61,0,0,1,2.27,5ZM1732.3,803c2,0,2.26-.57,2.43-5.23a5.38,5.38,0,0,0,1.19.57c-.2,4.87-.7,5.92-3.54,5.92h-8.91c-3.21,0-4.08-.35-4.08-2.44v-6.71h1.2v6.71c0,1,.41,1.18,2.8,1.18Zm-7.51-10.11a36.53,36.53,0,0,1,6.43,5.36l-.86.87a32.74,32.74,0,0,0-6.43-5.53Zm13.85,1.7a39,39,0,0,1,5.86,7.27l-1,.7a35.75,35.75,0,0,0-5.82-7.45Z"/><path class="cls-5" d="M1744.91,776.31v1.27h-35.08v-1.27h22.55a47.83,47.83,0,0,0,2.8-5.66l1.16.48c-.83,1.74-1.7,3.62-2.56,5.18ZM1710,802.7c2.1-1.91,3.79-5.22,4.82-7.66l1,.48c-1.07,2.48-2.68,5.79-4.74,7.84Zm32.89-32.09h-31.33v-1.27H1728a26.2,26.2,0,0,0-2.31-3.74l1.07-.48a29.61,29.61,0,0,1,2.72,4.22h13.44Zm-3.05,21.86h-25V780.36h25Zm-1.2-10.84H1716v4.13h22.63Zm0,5.4H1716v4.18h22.63Zm-18.26-10.76a18.77,18.77,0,0,0-2.18-5l1.11-.44a18.61,18.61,0,0,1,2.27,5ZM1732.3,803c2,0,2.26-.57,2.43-5.23a5.38,5.38,0,0,0,1.19.57c-.2,4.87-.7,5.92-3.54,5.92h-8.91c-3.21,0-4.08-.35-4.08-2.44v-6.71h1.2v6.71c0,1,.41,1.18,2.8,1.18Zm-7.51-10.11a36.53,36.53,0,0,1,6.43,5.36l-.86.87a32.74,32.74,0,0,0-6.43-5.53Zm13.85,1.7a39,39,0,0,1,5.86,7.27l-1,.7a35.75,35.75,0,0,0-5.82-7.45Z"/><g class="cls-6"><path class="cls-7" d="M1737.86,795.76l.13.16a.57.57,0,0,1,0-.14S1737.92,795.75,1737.86,795.76Z"/><path class="cls-7" d="M1738.12,796.07l0,0h0Z"/><path class="cls-7" d="M1738.42,796.29a.43.43,0,0,0-.14-.13A.23.23,0,0,0,1738.42,796.29Z"/><path class="cls-7" d="M1738.26,796s0,.07-.08.06h0l.1.06A.25.25,0,0,1,1738.26,796Z"/><path class="cls-7" d="M1738.26,796v-.11A.37.37,0,0,0,1738.26,796Z"/><path class="cls-7" d="M1738.94,795.52s-.14.17,0,.19a1.42,1.42,0,0,1,.46.23c.1,0,0,.29.07.31s.7.2.52,0-.52-.43-.8-.66l-.81-.42a.63.63,0,0,1-.15-.18l.15.3C1738.38,795.47,1738.73,795.38,1738.94,795.52Z"/><path class="cls-7" d="M1738.39,794.48l-.06.12c-.22-.07-.34.07-.47.21l.13.07c.08-.06.06-.12,0-.13a.75.75,0,0,0,.58-.14C1738.49,794.55,1738.46,794.49,1738.39,794.48Z"/><path class="cls-7" d="M1738.62,794.53l-.09.08h0l.08-.08Z"/><path class="cls-7" d="M1739.1,796.72a10.87,10.87,0,0,1,.9,1.07c.06,0,.12,0,.12,0a.57.57,0,0,0,0,.14l.11.16.06,0h0s.07,0,.08-.06a.52.52,0,0,1,0-.11l0,.11a.3.3,0,0,0,0,.13.42.42,0,0,1,.12.14.22.22,0,0,1-.12-.14l-.1-.07h0l.26.37.07.06c.09.07.19.13.14.25l0,.07v0l.18.29.25.1,0,.13a.25.25,0,0,1,.17,0c0-.1.05-.19.06-.26s-.3,0-.17-.2c-.13.21.21.07.17.2s0,.16-.06.26a.32.32,0,0,1,.12.35c-.17,0-.16-.2-.12-.35a.25.25,0,0,0-.17,0l0-.13-.25-.1.36.57c.6,1,1.22,1.94,1.72,3l.22.46.48-.29.74-.44.34-.19.42-.23-.25-.52c-.29-.61-.58-1.24-.89-1.91-.71-1.48-1.87-2.39-2.49-4a6.78,6.78,0,0,0-1.58-1.79c-.85-.29-1.27.75-1.29.81-.28,1,.33.87.61,1.93-.24-.68.75,0,.7.84-.11,1.27,1.26,1.76,1.72,2.78a8.4,8.4,0,0,0,.49.72,13.29,13.29,0,0,0,.92,1.64l.47-2-1,.76,2.08.52c-.36-.57-.72-1.14-1.11-1.74a4.19,4.19,0,0,0-1.07-.92,7.27,7.27,0,0,1-.46-.75,3.3,3.3,0,0,0-.8-.71c.25.26.47.42.74.72s-.35,0-.51-.06,0-.28,0-.31a1.37,1.37,0,0,0-.44-.27c-.09,0,.1-.17.06-.18-.2-.15-.55-.1-.6-.26l-.12-.31a.48.48,0,0,0-.12-.16l-.13-.06a.91.91,0,0,1-.15.21c0-.06,0-.16-.08-.22s0,.16.08.22a.91.91,0,0,0,.15-.21c-.31-.15-.64-.34-1-.51h0a.8.8,0,0,1,.29.54c0-.1,0-.14.11-.07l0,.13c-.16-.08-.33-.17-.31-.4l-.13,0c0-.07,0-.11.08-.17l-.09-.07A1.69,1.69,0,0,0,1739.1,796.72Z"/><path class="cls-7" d="M1740.39,798.23l-.07-.06.21.32C1740.58,798.36,1740.49,798.3,1740.39,798.23Z"/></g><g class="cls-6"><path class="cls-7" d="M1724.13,794.1l.15.12a.28.28,0,0,1,0-.13C1724.23,794,1724.18,794.08,1724.13,794.1Z"/><path class="cls-7" d="M1724.42,794.33l0,0h0Z"/><path class="cls-7" d="M1724.72,794.47a.31.31,0,0,0-.14-.09A.24.24,0,0,0,1724.72,794.47Z"/><path class="cls-7" d="M1724.54,794.27s0,.08-.06.08h0l.1,0A.21.21,0,0,1,1724.54,794.27Z"/><path class="cls-7" d="M1724.54,794.27v0Z"/><path class="cls-7" d="M1725.1,793.63s-.1.18,0,.18a1.35,1.35,0,0,1,.47.12c.08,0,0,.27.1.27s.68,0,.48-.11-.54-.27-.83-.43l-.81-.2a.61.61,0,0,1-.17-.15l.18.26C1724.58,793.7,1724.89,793.54,1725.1,793.63Z"/><path class="cls-7" d="M1724.55,792.82l0,.13c-.23,0-.31.11-.39.26l.13,0c.06-.07,0-.13-.06-.12a.64.64,0,0,0,.5-.22S1724.61,792.82,1724.55,792.82Z"/><path class="cls-7" d="M1724.77,792.84l-.07.08h0l.06-.09Z"/><path class="cls-7" d="M1725.42,794.71a10.14,10.14,0,0,1,1,.8c.06,0,.11,0,.12,0a.37.37,0,0,0,0,.12l.14.13.06,0h0s.06,0,.06-.07a.37.37,0,0,1,0-.11v.11a.35.35,0,0,0,0,.11.24.24,0,0,1,.14.1.26.26,0,0,1-.14-.1l-.09,0h0l.29.28.08,0c.1,0,.19.08.16.21l0,.05v0l.22.22a1.75,1.75,0,0,1,.24,0l0,.14a.26.26,0,0,1,.17,0,2.26,2.26,0,0,0,0-.25c0-.13-.27.08-.18-.14-.09.22.21,0,.18.14a2.26,2.26,0,0,1,0,.25.3.3,0,0,1,.16.31c-.16,0-.17-.15-.16-.31a.26.26,0,0,0-.17,0l0-.14a1.75,1.75,0,0,0-.24,0l.41.45c.71.8,1.43,1.5,2,2.35l.3.41.42-.37.59-.51.35-.29.37-.31-.35-.48-1.06-1.48c-.88-1.21-2.1-1.79-2.9-3.16a5.94,5.94,0,0,0-1.71-1.33c-.84-.08-1.09,1-1.09,1.06-.14,1,.42.76.82,1.69-.31-.59.7-.2.78.62.07,1.21,1.41,1.36,2,2.19a5.91,5.91,0,0,0,.56.56,10.81,10.81,0,0,0,1,1.22l.07-2.06c-.28.3-.54.61-.81.92l2.14.12c-.43-.48-.88-.9-1.31-1.37a3.66,3.66,0,0,0-1.15-.61c-.23-.15-.38-.44-.55-.59a2.76,2.76,0,0,0-.85-.47c.28.18.5.28.8.49s-.33.12-.49.07,0-.27-.09-.28a1.19,1.19,0,0,0-.45-.14c-.09,0,.07-.19,0-.19-.21-.09-.53,0-.6-.1l-.16-.26a.49.49,0,0,0-.13-.12l-.13,0a.72.72,0,0,1-.12.23s-.06-.13-.1-.18.07.14.1.18a.72.72,0,0,0,.12-.23c-.31-.06-.65-.16-1-.25h0a.67.67,0,0,1,.35.44c0-.09,0-.14.09-.1v.14c-.17,0-.34-.08-.35-.31h-.13c0-.06,0-.12,0-.18l-.09,0A1.4,1.4,0,0,0,1725.42,794.71Z"/><path class="cls-7" d="M1726.84,795.83l-.07,0,.24.24C1727,795.9,1726.94,795.86,1726.84,795.83Z"/></g><g class="cls-6"><path class="cls-7" d="M1727.57,802.64l-.58,0a1.61,1.61,0,0,1,.29.09C1727.41,802.74,1727.47,802.68,1727.57,802.64Z"/><path class="cls-7" d="M1726.46,802.61h-.1l-.09,0Z"/><path class="cls-7" d="M1725.46,802.67a2.86,2.86,0,0,0,.51,0A1.77,1.77,0,0,0,1725.46,802.67Z"/><path class="cls-7" d="M1726.26,802.73c-.06,0-.09-.07,0-.1h0l-.3,0Z"/><path class="cls-7" d="M1726.26,802.73l.18.09A.76.76,0,0,0,1726.26,802.73Z"/><path class="cls-7" d="M1726,803.58c-.1,0-.07-.22-.27-.16a8.88,8.88,0,0,1-1.31.17c-.2.06-.51-.21-.71-.15-.46.07-1.72.36-1,.36,1.11,0,1.77-.09,2.73-.13l2.31-.3c.23,0,.43,0,.64,0l-.86-.11C1727.13,803.22,1726.64,803.52,1726,803.58Z"/><path class="cls-7" d="M1731.8,802.78l-.3.08a2.8,2.8,0,0,0-1.38,0l.2.12c.27,0,.3-.08.07-.13a4.76,4.76,0,0,0,1.58.14C1731.94,802.89,1732,802.81,1731.8,802.78Z"/><path class="cls-7" d="M1732.28,802.93l-.31,0,0,0,.31,0Z"/><path class="cls-7" d="M1723.34,802.89a8.92,8.92,0,0,1-1.9-.13.86.86,0,0,1-.69-.49,2.62,2.62,0,0,1-.06-.89.3.3,0,0,1-.07-.27,1.92,1.92,0,0,0,.08-.3v-.72h0c0-.09-.06-.06-.1,0a1,1,0,0,1-.08.21l.08-.21a.94.94,0,0,0,.07-.3,4.13,4.13,0,0,1,0-.5,1.7,1.7,0,0,1,0,.5l0,.3,0,.08,0-1.22,0-.25a1.37,1.37,0,0,1,0-.77v-.22l0,0,0-.09,0-.91c0-.2-.1-.4-.13-.6l.12-.21a.76.76,0,0,1-.12-.34c-.07.17-.15.32-.2.46s.24.45,0,.71c.23-.26-.13-.49,0-.71s.13-.29.2-.46a1.88,1.88,0,0,1,0-.53V795h-.11a1.89,1.89,0,0,1-.44-.11,1.12,1.12,0,0,1,.44,0l.27,0,0,.22a1.81,1.81,0,0,1-.15.53.76.76,0,0,0,.12.34l-.12.21c0,.2.09.4.13.6l.06-1.68v-.28h-.44l-1.06,0h-.32v.34c-.06,1.81-.08,3.56-.1,5.34,0,.44,0,.88,0,1.33a4,4,0,0,0,.21,1.52,2.06,2.06,0,0,0,1.27,1.15,6,6,0,0,0,1.51.3c2.32.16,4.43.2,6.56.36,1,.07,2,.1,3,.12.49,0,1,0,1.55,0a4.21,4.21,0,0,0,1.85-.48,3.23,3.23,0,0,0,1.37-1.6,8.76,8.76,0,0,0,.48-1.66c.1-.53.19-1.05.27-1.57l.06-.39.08-.67c0-.47.1-1,.16-1.46l-.66-.29c-.24-.1-.5-.2-.77-.34l-.17-.09,0,0-.1-.08-2.12-1.76-.22,2.93-.21,2.68a6.47,6.47,0,0,1-.17,1c0,.12,0,0,0,.09s0,.11-.07.19a2.15,2.15,0,0,0-.28.23.61.61,0,0,0-.2.48.87.87,0,0,0,.37.61,1.44,1.44,0,0,0,1.14.18,1.66,1.66,0,0,0,1-.91,22.4,22.4,0,0,0,.8-3.14c-.29,1.29-.39.07-.24-1.33l-1,.49.32.23a1.31,1.31,0,0,1,.17.13.93.93,0,0,1,.2.21.64.64,0,0,1-.12.25l-.16.19s0,0-.07.1l-.08.23c-.08.33-.16.65-.23,1a9.16,9.16,0,0,1-.44,1.73.87.87,0,0,1-.22.35,1.6,1.6,0,0,1-.59.21,11.12,11.12,0,0,1-2.17,0c-.76-.06-1.57,0-2.48,0-1.18-.08-2.33-.11-3.48-.12s-2.33,0-3.28,0a3.1,3.1,0,0,1-.8-.14s0,0-.06-.07a1.9,1.9,0,0,1-.07-.52c0-1.1,0-2.36,0-3.58a26.43,26.43,0,0,0-.32-3.28l-1.08,1.08.3,0c.3,0,.6,0,.9,0l-1-1c0,.54-.07,1.06-.07,1.5a22.12,22.12,0,0,0,.2,2.86c-.05-1-.11-1.69-.15-2.8,0-.73.31.5.37,1,.06.2-.21.55-.15.75a8.84,8.84,0,0,0,.17,1.32c.06.2-.18.21-.16.31.06.65.36,1.09.3,1.52,0,.17,0,.31,0,.48a2.12,2.12,0,0,0,.06.57,1.06,1.06,0,0,0,.42.58,1.63,1.63,0,0,0,.45.18.31.31,0,0,1,0-.29,2.62,2.62,0,0,0,.64.27,2.62,2.62,0,0,1-.64-.27.31.31,0,0,0,0,.29,3.74,3.74,0,0,0,.89.09,5.74,5.74,0,0,0,.74,0l1.39-.16v0a4.34,4.34,0,0,1-1.59-.16c.23.06.2.13-.07.13l-.21-.14a3.24,3.24,0,0,1,1.39.08l.3-.08c.15,0,.15.11.18.17l.31,0A5.52,5.52,0,0,0,1723.34,802.89Z"/><path class="cls-7" d="M1720.67,799.78l0,.25,0-1A1.42,1.42,0,0,0,1720.67,799.78Z"/></g><g class="cls-6"><path class="cls-7" d="M1721.54,776.16l.13,0-.1-.06S1721.54,776.11,1721.54,776.16Z"/><path class="cls-7" d="M1721.9,775.62v0l0,0Z"/><path class="cls-7" d="M1721.78,775.4a.25.25,0,0,0,0,.12A.12.12,0,0,0,1721.78,775.4Z"/><path class="cls-7" d="M1721.78,775.6s.06,0,.09,0h0l0-.06A.12.12,0,0,1,1721.78,775.6Z"/><path class="cls-7" d="M1721.78,775.6l-.08.07Z"/><path class="cls-7" d="M1720.94,775.76s.2-.07.14-.1-.22-.14-.25-.23.17-.17.1-.2-.49-.23-.42-.09.21.34.31.53l.25.24.32-.6-.17.19a.33.33,0,0,1-.15,0l.23,0c.06,0,.09-.07.12-.17l-.26.5C1721.08,775.85,1721,775.82,1720.94,775.76Z"/><path class="cls-7" d="M1720.56,776.4l0-.1c.16.12.23,0,.31-.09l-.09-.09s0,.1,0,.13a.38.38,0,0,0-.4,0C1720.49,776.31,1720.52,776.38,1720.56,776.4Z"/><path class="cls-7" d="M1720.4,776.3l.06,0h0l-.06.06Z"/><path class="cls-7" d="M1721.42,775c-.11-.3-.2-.58-.28-.86-.05,0-.11,0-.1,0a.22.22,0,0,0,.06-.1l0-.12,0,0h0a.12.12,0,0,0-.1,0s0,0-.06.08l.06-.08a.2.2,0,0,0,0-.08.24.24,0,0,1-.06-.11.12.12,0,0,1,.06.11l.06.05h0l-.09-.28a.1.1,0,0,0,0-.05c-.06,0-.11-.1,0-.19l0-.05v0l-.06-.21a.84.84,0,0,1-.19-.07l.09-.1a.2.2,0,0,1-.14,0c0,.07-.11.13-.14.18s.26,0,.08.15c.18-.15-.17-.05-.08-.15s.09-.11.14-.18-.07-.14,0-.26c.13,0,.08.15,0,.26a.2.2,0,0,0,.14,0l-.09.1a.84.84,0,0,0,.19.07l-.14-.42a10.93,10.93,0,0,0-1-2.12l-.17-.31-.42.12-.48.14-.69.14-.62.12.31.83a6.08,6.08,0,0,1,.24.8c.2.94.86,1.62.64,2.72a3.07,3.07,0,0,0,.34,1.28c.49.32,1.44-.13,1.49-.17.78-.53.24-.65.52-1.42-.13.51-.63-.12-.22-.72.62-.91-.41-1.44-.54-2.21a2.66,2.66,0,0,0-.27-.57,3.15,3.15,0,0,0-.37-.86l-.73,2.22a8.92,8.92,0,0,0,1.09-.5l-1.74-.56a4.8,4.8,0,0,1,.64,1c.14.25.45.37.67.54s.1.37.16.5a1.36,1.36,0,0,0,.43.49c-.13-.18-.25-.3-.38-.49s.32,0,.43,0-.15.2-.08.22.18.13.28.2-.15.11-.12.12.43.1.4.21a.78.78,0,0,1,0,.22.53.53,0,0,0,0,.12l.09,0a1.14,1.14,0,0,1,.22-.12s0,.11,0,.15,0-.11,0-.15a1.14,1.14,0,0,0-.22.12,4.06,4.06,0,0,1,.55.46h0a.35.35,0,0,1,0-.39c0,.07-.1.08-.13,0l.09-.09c.1.08.21.17.07.32l.1,0s-.09.07-.15.09l0,.07A1.08,1.08,0,0,0,1721.42,775Z"/><path class="cls-7" d="M1721,773.78l0,.05-.07-.24C1720.86,773.68,1720.92,773.73,1721,773.78Z"/></g><g class="cls-6"><path class="cls-7" d="M1738.13,790.88l-.42,0,.26.09C1738.09,791,1738.1,790.92,1738.13,790.88Z"/><polygon class="cls-7" points="1737.32 790.85 1737.25 790.85 1737.18 790.87 1737.32 790.85"/><path class="cls-7" d="M1736.45,790.91a1.84,1.84,0,0,0,.47,0A1.51,1.51,0,0,0,1736.45,790.91Z"/><path class="cls-7" d="M1737.18,791s-.07-.07,0-.1h0l-.27,0A1.2,1.2,0,0,1,1737.18,791Z"/><path class="cls-7" d="M1737.18,791a1.46,1.46,0,0,0,.16.09Z"/><path class="cls-7" d="M1737,791.82c-.1,0-.07-.21-.26-.16a7.77,7.77,0,0,1-1.22.17c-.19.06-.48-.21-.67-.15-.43.06-1.55.39-.89.37,1,0,1.63-.1,2.52-.14l1.22-.16,1.33-.14h0c0-.25,0-.46,0-.68,0,.2,0,.4-.08.63l-.34,0a1.69,1.69,0,0,0-.72.11l-.46.11C1737.3,791.78,1737.08,791.8,1737,791.82Z"/><path class="cls-7" d="M1738.46,787.49l.08.28a2.26,2.26,0,0,0,0,1.29l.12-.2c0-.25-.08-.27-.13-.05a4.74,4.74,0,0,0,.14-1.49C1738.56,787.36,1738.49,787.35,1738.46,787.49Z"/><path class="cls-7" d="M1738.61,787l0,.28h0l0-.28Z"/><path class="cls-7" d="M1734.47,791.13c-1.24,0-2.41,0-3.55,0-.09,0-.15.1-.27.07l-.27-.09h-.5l-.17,0h0c-.09,0-.06.07,0,.1l.17.09-.17-.09-.27-.07a1.91,1.91,0,0,1-.48,0,1.57,1.57,0,0,1,.48,0l.28,0,.08,0-1.14,0-.24,0a1,1,0,0,1-.71,0h-.21l0,0-.07,0-.86,0-.57.14-.2-.12a.67.67,0,0,1-.32.12c.16.07.3.15.43.2s.43-.24.66,0c-.23-.22-.47.14-.66,0s-.27-.13-.43-.2a1.78,1.78,0,0,1-.9-.12,1.23,1.23,0,0,1,.9.12.67.67,0,0,0,.32-.12l.2.12.57-.14-1.71-.06c-1.5-.06-3-.09-4.42-.12l-4-.07c0-.52,0-1.09,0-1.68l0-.5,0-.32c0-.19,0-.39,0-.58l3.46.23c3.94.28,7.53,0,11.51.57a47.56,47.56,0,0,0,5.84.07c2-.4,1-1.43.86-1.49-1.22-.87-2.17-.39-4.64-.9,1.69.29-1.24.56-2.83,0-2.3-.91-5.58-.18-8.42-.42-.71-.06-1.46,0-2.31,0-.69,0-1.38-.08-2.06-.1l-1.53,0h-2c0,3.39,0,3.83.08,7.14l3.83,0h2.45a26.8,26.8,0,0,0,3.34-.35c.75,0,1.56.08,2.17.08a20.16,20.16,0,0,0,2.59-.19c-.89,0-1.54.11-2.53.14-.66,0,.46-.31.9-.37.18-.06.48.21.66.16a9.23,9.23,0,0,0,1.22-.18c.19,0,.17.19.26.16.6-.06,1-.36,1.44-.3l.8.11a2.64,2.64,0,0,0,.49,0l.32-.06a.51.51,0,0,1-.14-.26l.53.08-.53-.08a.51.51,0,0,0,.14.26c.79-.14,1.69-.27,2.53-.37v0a4.19,4.19,0,0,1-1.48-.14c.22.05.19.12-.06.13l-.19-.12a2.46,2.46,0,0,1,1.29,0l.28-.08c.14,0,.13.11.16.17l.29,0A6.19,6.19,0,0,0,1734.47,791.13Z"/><path class="cls-7" d="M1729.42,791.13l.23,0-1,0A1.12,1.12,0,0,0,1729.42,791.13Z"/></g><g class="cls-6"><path class="cls-7" d="M1738.1,785.43h-.42a1.15,1.15,0,0,1,.26.09C1738.06,785.53,1738.07,785.48,1738.1,785.43Z"/><polygon class="cls-7" points="1737.29 785.41 1737.22 785.4 1737.16 785.43 1737.29 785.41"/><path class="cls-7" d="M1736.41,785.47a3.76,3.76,0,0,0,.48,0A1.57,1.57,0,0,0,1736.41,785.47Z"/><path class="cls-7" d="M1737.15,785.53c-.05,0-.07-.08,0-.1h0l-.27,0A.81.81,0,0,1,1737.15,785.53Z"/><path class="cls-7" d="M1737.15,785.53l.16.08Z"/><path class="cls-7" d="M1736.92,786.38c-.09,0-.07-.22-.26-.16a9,9,0,0,1-1.21.17c-.19.06-.48-.21-.67-.16-.44.07-1.55.39-.89.38,1,0,1.63-.1,2.52-.15.6-.09,1.74-.21,2.53-.29h.1c0-.22,0-.42,0-.63l-.07.59-.39,0a1.89,1.89,0,0,0-.73.1l-.46.12Z"/><path class="cls-7" d="M1738.46,782.09l.08.28a2.26,2.26,0,0,0,0,1.29l.12-.2c0-.25-.08-.28-.13-.05a4.71,4.71,0,0,0,.14-1.48C1738.56,782,1738.49,782,1738.46,782.09Z"/><path class="cls-7" d="M1738.61,781.64l0,.29h0l0-.29Z"/><path class="cls-7" d="M1734.44,785.69c-1.24,0-2.41,0-3.55,0a.34.34,0,0,1-.26.08,1,1,0,0,0-.27-.09h-.5l-.17,0h0c-.09,0-.06.06,0,.1a.75.75,0,0,1,.18.08l-.18-.08a1,1,0,0,0-.26-.07,3.81,3.81,0,0,1-.48,0,1.57,1.57,0,0,1,.48,0l.28,0,.08,0-1.14,0-.24,0a1.17,1.17,0,0,1-.71,0h-.21l0,0-.07,0-.86,0c-.19,0-.38.1-.57.13l-.19-.11a.71.71,0,0,1-.32.11,3.38,3.38,0,0,0,.43.21c.19.12.43-.25.65,0-.22-.23-.46.14-.65,0a3.38,3.38,0,0,1-.43-.21,1.82,1.82,0,0,1-.91-.11,1.26,1.26,0,0,1,.91.11.71.71,0,0,0,.32-.11l.19.11c.19,0,.38-.09.57-.13l-1.71-.06c-1.5-.06-2.95-.1-4.41-.12l-4-.07c0-.52,0-1.1,0-1.68l0-.48v-.31c0-.19,0-.38.05-.57l3.49.24c3.93.28,7.52-.05,11.49.56a47.4,47.4,0,0,0,5.83.07c2-.4,1-1.43.86-1.48-1.21-.88-2.16-.39-4.63-.91,1.68.29-1.24.56-2.83,0-2.29-.91-5.57-.18-8.4-.41-.71-.06-1.46,0-2.31,0s-1.39-.08-2.07-.1l-1.53,0h-2c0,3.33,0,3.84.08,7.09l3.82,0c.8,0,1.62,0,2.45,0a28.65,28.65,0,0,0,3.33-.35c.76,0,1.56.08,2.17.08a19.76,19.76,0,0,0,2.58-.2c-.88,0-1.53.11-2.52.15-.66,0,.46-.31.9-.38.18-.05.48.22.66.16a9.15,9.15,0,0,0,1.22-.17c.19-.06.16.18.26.16.59-.06,1-.37,1.43-.3l.8.11a4,4,0,0,0,.49,0l.32-.06a.52.52,0,0,1-.14-.25l.53.08-.53-.08a.52.52,0,0,0,.14.25c.79-.14,1.69-.26,2.53-.37v0a4.43,4.43,0,0,1-1.48-.14c.22,0,.19.12-.06.13l-.19-.12a2.35,2.35,0,0,1,1.29,0l.28-.08c.13,0,.13.11.16.17l.29,0A5,5,0,0,0,1734.44,785.69Z"/><path class="cls-7" d="M1729.39,785.68l.24,0-1,0A1.1,1.1,0,0,0,1729.39,785.68Z"/></g><g class="cls-6"><path class="cls-7" d="M1740.17,786.36v-.74a1.63,1.63,0,0,1-.08.37A.56.56,0,0,0,1740.17,786.36Z"/><path class="cls-7" d="M1740.2,784.93v-.13l0-.11Z"/><path class="cls-7" d="M1740.13,783.64c0,.23,0,.45,0,.66A3,3,0,0,0,1740.13,783.64Z"/><path class="cls-7" d="M1740.08,784.67c0-.08.07-.12.1,0h0l0-.39A1.91,1.91,0,0,1,1740.08,784.67Z"/><path class="cls-7" d="M1740.08,784.67l-.09.24Q1740,784.81,1740.08,784.67Z"/><path class="cls-7" d="M1739.23,784.34c0-.13.21-.1.16-.35a15,15,0,0,1-.18-1.69.86.86,0,0,1,.08-.44.55.55,0,0,0,.08-.33,1.52,1.52,0,0,0-.18-.52c-.37.1-.53.2-.3.2h.11c0,.31,0,.58.07.84,0,.51,0,1,.07,1.59.1,1,.2,2,.3,3a7.4,7.4,0,0,1,0,.82c0-.35.08-.72.11-1.11A17.63,17.63,0,0,0,1739.23,784.34Z"/><path class="cls-7" d="M1740,791.83l-.08-.39a4.44,4.44,0,0,0,0-1.78l-.12.26c0,.35.08.39.14.08a8.44,8.44,0,0,0-.15,2C1739.92,792,1740,792,1740,791.83Z"/><path class="cls-7" d="M1739.87,792.45c0-.13,0-.26,0-.4l0,0,0,.4Z"/><path class="cls-7" d="M1739.91,780.85v-.56l-4.45,0a.56.56,0,0,1-.37.07,2.45,2.45,0,0,0-.37-.08h-.94c-.13,0-.09.06,0,.09l.24.09-.24-.09a1.91,1.91,0,0,0-.37-.06c-.22,0-.44,0-.66,0a3,3,0,0,1,.66,0l.38,0,.12,0-1.58,0-.33,0a2.22,2.22,0,0,1-1-.05h-.28l0,0-.1,0-1.19,0c-.26,0-.53.1-.79.13l-.27-.12a1.22,1.22,0,0,1-.44.12c.21.07.41.15.59.2s.6-.24.91,0c-.31-.23-.64.13-.91,0s-.38-.13-.59-.2a3.62,3.62,0,0,1-1.26-.11,2.25,2.25,0,0,1,1.26.11,1.22,1.22,0,0,0,.44-.12l.27.12c.26,0,.53-.09.79-.13l-2.37-.07C1725,780,1723,780,1721,780l-6.65-.07c0,1.09,0,2.27-.06,3.48,0,1.45-.08,2.87-.13,4.28-.06,1.56-.12,3.09-.18,4.63l0,1.08,4.71.1,3.77,0c2.51,0,5,.11,7.67.4,2.12.21,6,.1,8.08.07,2.73-.39,1.32-1.42,1.19-1.48-1.68-.88-3-.39-6.42-.91,2.33.29-1.72.57-3.92,0-3.18-.92-7.73-.19-11.66-.42l-.6,0h-.55V791l0-.07s0-.1,0-.23v-.36c0-.48,0-1,0-1.44,0-1,0-1.9,0-2.85l0-2.84,0-1.34a.46.46,0,0,1,0-.09h.2l1.66,0h3.4c1.7,0,3.19-.22,4.62-.34,1,0,2.16.07,3,.07a35.05,35.05,0,0,0,3.58-.19l-3.5.15c-.91,0,.64-.31,1.24-.38.26,0,.67.21.93.16a14.57,14.57,0,0,0,1.68-.18c.26,0,.23.19.36.16a17.31,17.31,0,0,1,2-.29l1.11.11c.22,0,.44,0,.68,0l.45-.06a.49.49,0,0,1-.21-.25l.75.08-.75-.08a.49.49,0,0,0,.21.25l1.81-.25c0,.3.08.64.12,1l0,0a9.11,9.11,0,0,1,0-1.15,5.15,5.15,0,0,1-.59-.12c.26.06.17.12-.14.14l-.19-.12a8.08,8.08,0,0,1,1.09-.07,3.32,3.32,0,0,1-.11.75l.09.33c0,.2-.11.2-.18.24l0,.37a3.56,3.56,0,0,0,.18-.68Z"/><path class="cls-7" d="M1733.38,780.28l.33,0-1.32,0A2.22,2.22,0,0,0,1733.38,780.28Z"/></g><g class="cls-6"><path class="cls-7" d="M1738,769h-.74a1.66,1.66,0,0,1,.37.09A.63.63,0,0,0,1738,769Z"/><path class="cls-7" d="M1736.61,769h-.13l-.11,0Z"/><path class="cls-7" d="M1735.32,769.05c.23,0,.44,0,.66,0A3,3,0,0,0,1735.32,769.05Z"/><path class="cls-7" d="M1736.35,769.11c-.08,0-.12-.08,0-.1h0l-.39,0A2,2,0,0,1,1736.35,769.11Z"/><path class="cls-7" d="M1736.35,769.11l.24.08A1.35,1.35,0,0,0,1736.35,769.11Z"/><path class="cls-7" d="M1736,770c-.13,0-.1-.21-.36-.15a17,17,0,0,1-1.69.17c-.25,0-.66-.21-.92-.16-.61.07-2.15.39-1.24.38l3.5-.15,3-.3a7.4,7.4,0,0,1,.82,0l-1.11-.11A17.63,17.63,0,0,0,1736,770Z"/><path class="cls-7" d="M1743.08,770l-.09-.39a1.05,1.05,0,0,0,.06-.24l0-.12-.19,0a5,5,0,0,0-1.55,0l.26.12c.35,0,.39-.08.08-.13a8.47,8.47,0,0,0,1.21.14h0c0,.29,0,.57,0,.85C1743,770.15,1743,770.16,1743.08,770Z"/><path class="cls-7" d="M1742.92,770.59c0-.13,0-.27,0-.4l0,0,0,.4Z"/><path class="cls-7" d="M1732.57,769.27c-1.08,0-2.18,0-3.07,0-.27-.53-.54-1-.87-1.57a.54.54,0,0,1-.25-.25,2.26,2.26,0,0,0-.17-.43l-.41-.62-.14-.18h0c-.08-.06-.05,0,0,.15a3.54,3.54,0,0,1,.12.34l-.12-.34a2.73,2.73,0,0,0-.22-.41c-.12-.15-.25-.31-.39-.5a2.79,2.79,0,0,1,.39.5l.24.27.06.06a11.33,11.33,0,0,0-1-1.25l0,0-.08,0-.14.08c-.18.1-.35.19-.51.26l-.24.08c-.06,0-.2,0-.14.05l.15.18h0l0,.05.59.77c.17.26.36.58.53.87l0-.1c.11.23.23.45.34.64,0,0,0,.08-.08,0l-.11-.16a2.88,2.88,0,0,1-.24-.4c-.1-.18-.22-.38-.22-.34s.12.16.22.34a2.88,2.88,0,0,0,.24.4l.11.16s0,0,.08,0l.19.27c.08.13.15.21.24.35a.94.94,0,0,1,.26.43c0,.09,0,.18.13.29l.35.37-.33-.41c0-.14,0-.28,0-.42v-.2a.54.54,0,0,0-.11-.18l-.23-.32a1.35,1.35,0,0,0-.33-.3.51.51,0,0,0-.13.12c-.11-.19-.23-.41-.34-.64l0,.1c-.17-.29-.36-.61-.53-.87.2.25.38.5.59.73a.6.6,0,0,0,.39.18l.39.53.24.35a.54.54,0,0,1,.16.37v.32c0,.11,0,.21.12.34l.32.36.17.18.08.09h-1.45l-1.93,0-3.92-.11c-2.66-.1-5.36-.21-8.27-.35l-1.55-.09H1711v.59l0,.73h0a12.57,12.57,0,0,1,2.86.56l.71.27.09,0,.06,0h.94l1.55,0,6.37,0,3.25,0,1.31,0,1,0c1.33.06,2.67.15,4.05.3,2.12.21,6,.1,8.09.07,2.74-.4,1.32-1.43,1.19-1.48-1.68-.88-3-.39-6.42-.91,2.33.29-1.72.56-3.93,0a13,13,0,0,0-2.61-.42c-.47,0-1,0-1.44,0h-.53a3.74,3.74,0,0,1-.46.08c-.19,0-.4,0-.24,0s-.1,0-.1,0a6.41,6.41,0,0,1,.8-.12,4.12,4.12,0,0,0-.6,0h.26c.07,0,0,0,0,0l.37,0c.28.08,0-.18,0-.28l-.2-.31L1727,768a2.5,2.5,0,0,1,.18-.26s.08-.14.11-.12l.07,0-.09-.09s-.09.06-.13.09a1,1,0,0,0-.21.21c.14.21.27.41.38.6s0,0-.1-.22-.35-.62-.48-.82-.07-.08-.06,0,0,0,0,0l.08,0c.06,0,.09,0,.1,0a.75.75,0,0,0,.3-.31.57.57,0,0,1,.23.08c.07,0,.09.49.12.48s.22.09.35.15a.63.63,0,0,1,.34.34c.12.26.15.38.38.87.14.28.28.58.44.87l0,0,.61,0a.25.25,0,0,1-.16-.25l.9.08-.9-.08a.25.25,0,0,0,.16.25l3.7-.37v0a8.92,8.92,0,0,1-2-.14c.3.05.27.12-.08.13l-.27-.12a4.49,4.49,0,0,1,1.79,0l.39-.08c.19,0,.18.11.22.17l.4,0A8.66,8.66,0,0,0,1732.57,769.27Z"/><path class="cls-7" d="M1727.41,765.91l.2.24c-.27-.39-.54-.73-.81-1A4.41,4.41,0,0,0,1727.41,765.91Z"/></g><g class="cls-6"><path class="cls-7" d="M1711.62,803.26l.15-.15a.25.25,0,0,1-.13,0C1711.59,803.15,1711.61,803.2,1711.62,803.26Z"/><path class="cls-7" d="M1711.91,803l0,0v0Z"/><path class="cls-7" d="M1712.1,802.65a.72.72,0,0,0-.11.15A.2.2,0,0,0,1712.1,802.65Z"/><path class="cls-7" d="M1711.87,802.84s.08,0,.07.07h0l0-.11A.28.28,0,0,1,1711.87,802.84Z"/><path class="cls-7" d="M1711.87,802.84h0Z"/><path class="cls-7" d="M1711.28,802.22s.18.12.19,0,0-.35.15-.46.27,0,.27-.1,0-.7-.1-.49-.28.54-.45.82-.18.53-.31.79a.5.5,0,0,1-.17.15l.29-.14C1711.3,802.76,1711.18,802.42,1711.28,802.22Z"/><path class="cls-7" d="M1710.05,803l.13,0c0,.24.23.27.41.3v-.15c-.09,0-.14,0-.09.11a.71.71,0,0,0-.41-.42C1710.06,802.84,1710,802.9,1710.05,803Z"/><path class="cls-7" d="M1710,802.74l.11,0v0l-.11,0Z"/><path class="cls-7" d="M1712.41,801.91l.8-1.12s-.06-.1,0-.12a.32.32,0,0,0,.13,0l.11-.15,0-.07h0s0-.06-.08-.06h0l.11-.05a.32.32,0,0,1,.09-.16.28.28,0,0,1-.09.16l0,.11v0l.26-.36,0-.09c0-.11,0-.22.19-.22l0-.06h0l.19-.28a2.35,2.35,0,0,1,0-.26h.14a.26.26,0,0,1,0-.17l-.25,0c-.14,0,.13.27-.11.23.24,0,0-.22.11-.23l.25,0a.32.32,0,0,1,.27-.25c0,.17-.12.22-.27.25a.26.26,0,0,0,0,.17h-.14a2.35,2.35,0,0,0,0,.26l.37-.56a26.47,26.47,0,0,0,1.71-3.15l.19-.39-.43-.24-.62-.35-.33-.21-.46-.28-.32.58a14.64,14.64,0,0,1-1,1.63c-.9,1.2-1.29,2.56-2.62,3.38a9.78,9.78,0,0,0-1.35,1.5c-.2.74.73,1.28.81,1.28,1,.3.89-.31,1.91-.75-.64.34-.13-.73.72-.91,1.3-.26,1.38-1.81,2.1-2.7a5.08,5.08,0,0,0,.44-.81,7.47,7.47,0,0,0,1-1.81l-2,.77,1,.42-.69-1.88a13.08,13.08,0,0,1-.75,1.79,4.18,4.18,0,0,0-.24,1.27,4.22,4.22,0,0,1-.45.68,2.91,2.91,0,0,0-.31.93c.12-.3.19-.54.34-.88s.18.29.16.47-.27,0-.26.14a1.42,1.42,0,0,0-.08.48c0,.09-.19,0-.19,0-.07.22.1.53,0,.62l-.26.19a.76.76,0,0,0-.11.14l0,.14a.78.78,0,0,1,.24.09s-.13.08-.18.12.14-.08.18-.12a.78.78,0,0,0-.24-.09,5.17,5.17,0,0,1-.26,1h0a.73.73,0,0,1,.46-.37c-.1,0-.14,0-.1-.1h.14c0,.18-.09.35-.32.38V802c-.06,0-.12,0-.18-.05l0,.09A1.14,1.14,0,0,0,1712.41,801.91Z"/><path class="cls-7" d="M1713.5,800.29l0,.09.22-.3C1713.55,800.07,1713.53,800.18,1713.5,800.29Z"/></g><g class="cls-6"><path class="cls-7" d="M1738,776h-.85a3.58,3.58,0,0,1,.43.08A.72.72,0,0,0,1738,776Z"/><path class="cls-7" d="M1736.32,776h-.14l-.1,0Z"/><path class="cls-7" d="M1735.11,776c.2,0,.42,0,.61,0A2.54,2.54,0,0,0,1735.11,776Z"/><path class="cls-7" d="M1736.05,776.08c-.07,0-.09-.08,0-.1h0l-.36,0A1.6,1.6,0,0,1,1736.05,776.08Z"/><path class="cls-7" d="M1736.05,776.08l.24.08Z"/><path class="cls-7" d="M1735.41,776.92c-.22,0-.06-.21-.46-.16l-1.42.12-.71,0a3.53,3.53,0,0,1,.24-.57c.12-.36.75-1,.84-1.34s.18-.49.3-.81a6.71,6.71,0,0,0,.24-.78c.09-.39.1-.58-.12-.12-.45,1-.83,1.81-1.2,2.6l-.28.62-.14.3-.07.16a.21.21,0,0,0,0,.07h.09l1.5,0,1.27-.07,1.07-.08,1.71-.15c.33,0,.63,0,.94,0l-1.27-.11a3.29,3.29,0,0,0-1,.1l-.6.12C1736.09,776.88,1735.73,776.91,1735.41,776.92Z"/><path class="cls-7" d="M1744.18,776.13l-.44.08a5.59,5.59,0,0,0-2,0l.31.12c.39,0,.44-.08.09-.13a11.58,11.58,0,0,0,2.34.14C1744.39,776.23,1744.4,776.16,1744.18,776.13Z"/><path class="cls-7" d="M1744.89,776.28l-.45,0v0l.46,0Z"/><path class="cls-7" d="M1734.77,774.48l1.64-3.32,0-.07-.08,0-1.15-.49-.09,0,0,.09-.25.57a.74.74,0,0,1-.1.42,2.8,2.8,0,0,0-.25.35l-.34.71-.1.25h0c0,.14,0,.12.09.05a2,2,0,0,1,.2-.21l-.2.21a4.37,4.37,0,0,0-.25.36,5.1,5.1,0,0,1-.32.67,3.83,3.83,0,0,1,.32-.67l.17-.42,0-.12c-.26.53-.54,1.06-.82,1.59l-.16.34c-.09.2-.18.39-.27.56a2.94,2.94,0,0,1-.17.26c.15.08-.58.13-1.28.17l-1.33.12-.68.06,0,.17a2.51,2.51,0,0,1,.28-.13,1.93,1.93,0,0,1-.24.25c.34.71-.14.47-.37.52h-.8a8.48,8.48,0,0,0,.87-.24l-1.72.19a4.52,4.52,0,0,0,1-.2l1.54-.16h.92a3.07,3.07,0,0,0,.58,0,3.07,3.07,0,0,1-.58,0h-.92l-1.54.16a14.11,14.11,0,0,0-2.63.16c-.63.17.83,0,2.63-.16a4.52,4.52,0,0,1-1,.2l1.72-.19a8.48,8.48,0,0,1-.87.24l-3,0c-3.31,0-5.74,0-8.11-.09s-4.64-.17-6.92-.3l-.94,0c0,.44,0,.87,0,1.29h0a17.78,17.78,0,0,1,3.38.48c.44.14.89.28,1.42.41l.2,0h2.63l3.58,0c2.4,0,4.76,0,7.22.1l3.82.11c1.24.05,3.09.11,3.58.19,2.41.21,6.89.1,9.21.07.25,0,.46-.06.64-.1l1.59-.34-.21-1c-.45-2.24-1.33-.86-1.38-.72a7.12,7.12,0,0,0-.28.72l.28-.28c-1.62-.49-3.19-.18-6.6-.63,1.33.15.84.29-.3.32-.56,0-1.29,0-2-.06-.37,0-.75-.06-1.11-.11l-.53-.08a.56.56,0,0,1-.21-.11c-.28-.23-.23-.35-.2-.42s0-.06-.16,0l-.83.08c-.29,0-.53,0-.14,0s0,0,0,0c1-.11,1.54-.13,1.32-.12h0c-.2,0-.79,0-1.06,0h.15l-.54,0-.55,0h1.26c.18,0,.4.1.42-.16l0-.14.21-.45.38-.9c-.15.32-.3.62-.43.92l-.21.41-.06.15c0,.27-.26.16-.44.18l-.32,0s.12,0,.27,0c0-.16.43-.32.43-.43a13.8,13.8,0,0,0,.72-1.77c.09-.29.29-.15.33-.3.37-.88.39-1.68.69-2.21l.32-.6-.79.33.53.27a6.46,6.46,0,0,0,.6.27l-.35-.91,0,.11c-.06.16-.12.32-.17.48a.49.49,0,0,1,.33-.09l-.45.72.45-.72a.49.49,0,0,0-.33.09c-.42,1.17-.9,2.44-1.52,3.92l0,0c.18-.4.38-.8.6-1.19a8.26,8.26,0,0,1,.65-1c-.2.29-.24.22-.08-.14l.24-.22a5.84,5.84,0,0,1-1,1.85l-.11.42a.75.75,0,0,1-.34.29l-.2.45c.16-.2.41-.55.61-.82Z"/><path class="cls-7" d="M1733.87,773.35l.14-.35-.7,1.34A2.63,2.63,0,0,0,1733.87,773.35Z"/></g><path d="M1743.18,833.87c-.7,18.11-1.36,24.21-3,26a3.33,3.33,0,0,1-2.72,1.09c-1.32,0-4-.09-6.56-.31a3.2,3.2,0,0,0-.41-1.26,67.31,67.31,0,0,0,6.76.31c1,0,1.4,0,1.82-.57,1.4-1.44,2.14-7.62,2.84-24.95h-16.45c-.82,8.66-4,18.68-15.49,26.78a3.6,3.6,0,0,0-.91-.87c11.17-8,14.34-17.55,15.21-25.91h-14V833h14.09c.17-2.22.21-4.31.21-6.27v-4.44h1.19v4.44c0,2,0,4.05-.2,6.27h17.56Zm-24-3.27a38.45,38.45,0,0,0-4.83-6.49l1-.61a37.92,37.92,0,0,1,4.83,6.36Zm15.13,19.82a50.79,50.79,0,0,0-6.52-8.93l1-.61a50.25,50.25,0,0,1,6.55,8.75Z"/><path class="cls-5" d="M1743.18,833.87c-.7,18.11-1.36,24.21-3,26a3.33,3.33,0,0,1-2.72,1.09c-1.32,0-4-.09-6.56-.31a3.2,3.2,0,0,0-.41-1.26,67.31,67.31,0,0,0,6.76.31c1,0,1.4,0,1.82-.57,1.4-1.44,2.14-7.62,2.84-24.95h-16.45c-.82,8.66-4,18.68-15.49,26.78a3.6,3.6,0,0,0-.91-.87c11.17-8,14.34-17.55,15.21-25.91h-14V833h14.09c.17-2.22.21-4.31.21-6.27v-4.44h1.19v4.44c0,2,0,4.05-.2,6.27h17.56Zm-24-3.27a38.45,38.45,0,0,0-4.83-6.49l1-.61a37.92,37.92,0,0,1,4.83,6.36Zm15.13,19.82a50.79,50.79,0,0,0-6.52-8.93l1-.61a50.25,50.25,0,0,1,6.55,8.75Z"/><g class="cls-6"><path class="cls-7" d="M1735.27,848.84l-.11-.22a.86.86,0,0,1,0,.15C1735.15,848.83,1735.21,848.83,1735.27,848.84Z"/><polygon class="cls-7" points="1735.05 848.42 1735.03 848.38 1734.99 848.36 1735.05 848.42"/><path class="cls-7" d="M1734.77,848.08a.47.47,0,0,0,.12.18A.38.38,0,0,0,1734.77,848.08Z"/><path class="cls-7" d="M1734.9,848.41s0-.08.09,0h0l-.1-.1A.38.38,0,0,1,1734.9,848.41Z"/><path class="cls-7" d="M1734.9,848.41l0,.11Z"/><path class="cls-7" d="M1734.12,848.76s.17-.14.08-.18-.35-.21-.45-.37.06-.29,0-.33-.71-.37-.54-.13l.75.87c.25.22.51.42.75.66a.82.82,0,0,1,.12.25,2.83,2.83,0,0,0-.09-.37C1734.68,849,1734.31,849,1734.12,848.76Z"/><path class="cls-7" d="M1734.6,850.44l.05-.14c.26,0,.37-.16.49-.33l-.14,0c-.08.08,0,.14.06.12a1,1,0,0,0-.63.3S1734.53,850.45,1734.6,850.44Z"/><path class="cls-7" d="M1734.34,850.44l.09-.09v0l-.09.11Z"/><path class="cls-7" d="M1734.09,847.44c-.32-.47-.62-.9-.91-1.34-.06,0-.12,0-.13-.06a.35.35,0,0,0,0-.15l-.12-.19-.06-.05h0s-.07,0-.08.05a.5.5,0,0,1,0,.12l0-.12a.23.23,0,0,0,0-.14.45.45,0,0,1-.13-.17.34.34,0,0,1,.13.17l.11.09h0l-.29-.44-.08-.07c-.1-.08-.2-.16-.15-.29l-.06-.08v0l-.22-.33a2.21,2.21,0,0,1-.27-.12l0-.14a.27.27,0,0,1-.18,0,1.57,1.57,0,0,0,0,.28c0,.15.31,0,.2.23.11-.22-.24-.08-.2-.23a1.57,1.57,0,0,1,0-.28.43.43,0,0,1-.17-.39c.18.06.19.23.17.39a.27.27,0,0,0,.18,0l0,.14a2.21,2.21,0,0,0,.27.12l-.44-.65a32.15,32.15,0,0,0-2.51-3.23l-.24-.28-.37.2-.87.47-.16.08-.54.28.42.56a20.66,20.66,0,0,1,1.45,2.14c.89,1.55,2.14,2.66,2.63,4.47a13.42,13.42,0,0,0,1.29,2.19c.74.54,1.46-.3,1.48-.38.51-.92-.14-1.07-.31-2.31.17.81-.78-.18-.71-1.12.15-1.42-1.36-2.23-2-3.4a7.54,7.54,0,0,0-.65-.87,11.72,11.72,0,0,0-1.66-2.1l-.33,2.29,1-.66-1.81-.25a14.84,14.84,0,0,1,1.46,1.58,6.57,6.57,0,0,0,1.22.93,6.7,6.7,0,0,1,.54.81,4.64,4.64,0,0,0,.86.81c-.28-.3-.5-.49-.8-.82s.36,0,.54.09,0,.3,0,.34a2.24,2.24,0,0,0,.48.33c.09,0-.11.17-.06.19.2.18.57.17.62.35l.12.36a.52.52,0,0,0,.12.18l.13.09a.65.65,0,0,1,.17-.2c0,.06,0,.18.07.24s0-.18-.07-.24a.65.65,0,0,0-.17.2,9.24,9.24,0,0,1,1,.73h0a1,1,0,0,1-.25-.64c0,.11,0,.14-.13.05l.05-.14c.17.13.34.26.3.51l.14.06c0,.07-.06.11-.11.16l.09.1A1.67,1.67,0,0,0,1734.09,847.44Z"/><path class="cls-7" d="M1732.76,845.55l.08.08-.24-.37C1732.56,845.39,1732.66,845.47,1732.76,845.55Z"/></g><g class="cls-6"><path class="cls-7" d="M1720.32,829.45l-.08-.17a.21.21,0,0,1,0,.12C1720.21,829.45,1720.27,829.44,1720.32,829.45Z"/><path class="cls-7" d="M1720.16,829.12v0h0Z"/><path class="cls-7" d="M1719.94,828.88a.38.38,0,0,0,.09.13A.2.2,0,0,0,1719.94,828.88Z"/><path class="cls-7" d="M1720,829.13s0-.07.09,0h0L1720,829A.17.17,0,0,1,1720,829.13Z"/><path class="cls-7" d="M1720,829.13l0,.09A.36.36,0,0,0,1720,829.13Z"/><path class="cls-7" d="M1719.26,829.5s.17-.13.09-.15-.29-.14-.37-.26.09-.25,0-.27-.62-.21-.48,0,.39.4.58.62.43.29.63.47a.58.58,0,0,1,.08.18l0-.29C1719.76,829.62,1719.41,829.64,1719.26,829.5Z"/><path class="cls-7" d="M1719.43,830.66l0-.13c.21.06.29-.09.37-.23l-.12-.06c-.06.06,0,.12.06.12a.61.61,0,0,0-.49.19C1719.32,830.6,1719.37,830.66,1719.43,830.66Z"/><path class="cls-7" d="M1719.21,830.63l.07-.08h0l-.06.08Z"/><path class="cls-7" d="M1719.38,828.42c-.25-.35-.47-.69-.69-1,0,0-.11,0-.11,0a.3.3,0,0,0,0-.13l-.09-.14,0,0h0s-.07,0-.09.06a.22.22,0,0,1,0,.1l0-.1a.24.24,0,0,0,0-.12.29.29,0,0,1-.1-.12.17.17,0,0,1,.1.12l.09.06h0l-.21-.34-.06-.05c-.09-.06-.17-.11-.11-.23l0-.06v0l-.16-.25-.23-.07.06-.13a.31.31,0,0,1-.17,0c0,.08,0,.17-.06.24s.28,0,.15.17c.13-.21-.2-.05-.15-.17s0-.16.06-.24a.28.28,0,0,1-.1-.32c.15,0,.14.17.1.32a.31.31,0,0,0,.17,0l-.06.13.23.07c-.1-.17-.21-.34-.32-.51a22.58,22.58,0,0,0-1.86-2.45l-.23-.28-.38.2-.68.36-.36.17-.57.27.45.62a11.3,11.3,0,0,1,.89,1.43c.64,1.19,1.64,2,1.9,3.41a6.46,6.46,0,0,0,1,1.64c.65.34,1.4-.43,1.43-.49.55-.81,0-.86-.08-1.86.08.65-.7-.06-.53-.85.27-1.21-1-1.71-1.47-2.63a4,4,0,0,0-.49-.66,6.28,6.28,0,0,0-1.08-1.41l-.32,2.31c.32-.21.63-.44.95-.67l-1.81-.25a10.08,10.08,0,0,1,1.09,1.16,3.64,3.64,0,0,0,1,.64c.19.17.27.46.4.62a2.58,2.58,0,0,0,.68.57c-.21-.21-.4-.34-.63-.58s.34-.07.48,0-.07.25,0,.27a1.13,1.13,0,0,0,.39.22c.08,0-.11.16-.07.17s.5.07.52.21.06.2.08.29a.39.39,0,0,0,.08.14l.11.06a1.07,1.07,0,0,1,.18-.19s0,.14,0,.19,0-.14,0-.19a1.07,1.07,0,0,0-.18.19,4.38,4.38,0,0,1,.79.5l0,0a.62.62,0,0,1-.17-.5c0,.09-.06.12-.12.06l.06-.12c.14.08.29.17.22.38l.12,0c0,.06-.06.1-.11.14l.07.07A1.31,1.31,0,0,0,1719.38,828.42Z"/><path class="cls-7" d="M1718.37,827l.06.06-.17-.29C1718.2,826.88,1718.28,826.94,1718.37,827Z"/></g><g class="cls-6"><path class="cls-7" d="M1726.09,832.62H1726s0-.06,0-.09v-.22l0-.43,0-1c0,.18,0,.36,0,.54s0,.31-.07.47a2.67,2.67,0,0,0,0,.48C1725.94,832.51,1725.86,832.71,1726.09,832.62Z"/><path class="cls-7" d="M1726.11,828.84l0-.39c0-.12,0-.24,0-.34Z"/><path class="cls-7" d="M1726.12,825c0,.69,0,1.34,0,2C1726.16,826.38,1726.14,825.73,1726.12,825Z"/><path class="cls-7" d="M1726,828.05c0-.24.08-.35.09,0v0c0-.39,0-.77,0-1.17C1726.09,827.36,1726.06,827.73,1726,828.05Z"/><path class="cls-7" d="M1726,828.05c0,.24-.09.59-.11.72C1725.94,828.56,1726,828.32,1726,828.05Z"/><path class="cls-7" d="M1725.2,827.07c0-.39.23-.3.17-1.07,0-1.34-.1-2.55-.15-3.76l.6.61-1.19,0,.62-.63v.11c.06.77-.21,2-.15,2.76.11,1.81.2,6.51.3,3.75.1-2.58,0-4.55,0-6.62l-.75.76,1.19,0-.73-.74c0,.84,0,1.73,0,2.69.07,1.51.07,3,.07,4.44v2.29c0,.49,0,1,0,1.46v.26h.46l.74,0h1.42l1.22,0-3.64-.11h-.08V833c0-.12,0-.24,0-.37s0-.5,0-.77c0-.58,0-1,0-1.48C1725.24,829.38,1725.19,828.29,1725.2,827.07Z"/><path class="cls-7" d="M1742.17,832.77l-1.16.08a38.11,38.11,0,0,0-5.35,0l.8.12c1,0,1.16-.08.24-.13,2.11.14,4.11.16,6.15.14C1742.72,832.87,1742.75,832.8,1742.17,832.77Z"/><path class="cls-7" d="M1743.21,833.83c0-.3,0-.59,0-.88v0h-.35l0,0h.29l0,.92Z"/><path class="cls-7" d="M1724.55,826.54q-.06,1.94-.12,3.81l-.06,1.83v.66c0,.08-.13,0-.18,0h-.88l-7.19,0a5.25,5.25,0,0,1-1.11.08c-.37,0-.75-.07-1.11-.09h-2.07l-.73,0h0c-.39,0-.28.06,0,.1l.73.08L1711,833l-.69-.05h-.06V833l0,.42c0,.28,0,.56,0,.85v.06h1.18l-1.12,0h-.09v-.09c0-.31,0-.59,0-.85v-.5h.09l.75,0,.33,0h-1.22v1.54h.15l2.36,0,1,0a19.88,19.88,0,0,1,3,0h.84l-.16,0,.32,0,3.57,0,2.3-.13.24,0,.2,0,.09,0s0,.07,0,.1a5.21,5.21,0,0,1,0,1.12c.07-.32.15-.63.22-.93s.07-.33.11-.48-.07-.07-.12-.09l-.2,0a6.72,6.72,0,0,0-1.4,0,4.3,4.3,0,0,1-1.43,0,4.3,4.3,0,0,0,1.43,0,6.72,6.72,0,0,1,1.4,0l.2,0s.17,0,.12.09-.07.31-.11.48-.15.61-.22.93a17.18,17.18,0,0,1-.78,3.64,36.13,36.13,0,0,1,.78-3.64,5.21,5.21,0,0,0,0-1.12s0-.09,0-.1l-.09,0-.2,0-.24,0-2.3.13,1.68,0H1724l0,.37-.09.73-.06.36-.07.44c-.09.59-.19,1.17-.32,1.76a33.74,33.74,0,0,1-5.16,12.28,37,37,0,0,1-4.28,5.06,45.29,45.29,0,0,1-5.14,4.29l-.56.41.57.32a4.48,4.48,0,0,1,1,1.06l.12,0,.13-.09.28-.21.55-.41,1-.71c.59-.41,1.13-.91,1.69-1.37s1.1-1,1.64-1.47,1.06-1,1.57-1.58a34.69,34.69,0,0,0,5.31-7.42A37.6,37.6,0,0,0,1726,836l.13-1a.13.13,0,0,1,0-.06h.86l3.12.05,6.18.1,4.71.07c-.1,1.82-.2,3.62-.29,5.41-.12,2.1-.24,4.2-.39,6.28s-.33,4.16-.59,6.2c-.12,1-.28,2-.48,3-.12.49-.24,1-.38,1.4a3.07,3.07,0,0,1-.51,1l-.07.08c-.14.14-.08.1-.26.14a5.3,5.3,0,0,1-.91,0c-.72,0-1.43,0-2.15-.06-1.44-.06-2.88-.17-4.31-.34l-1.89-.23.77,2a1.51,1.51,0,0,1,.19.56l.15,1.22,7.9.56a5.66,5.66,0,0,0,1.61-.24,4.23,4.23,0,0,0,1.73-1,5.54,5.54,0,0,0,.67-.82,7,7,0,0,0,.44-.86,11.37,11.37,0,0,0,.57-1.67,45.17,45.17,0,0,0,1-6.76c.39-4.54.54-9,.67-12.08,0-8.22-1.26-4-1.33-3.63a49.92,49.92,0,0,0-.93,7.63,103.6,103.6,0,0,1-1.24,11.44c.29-1.69.4-2.24.44-2a16.51,16.51,0,0,1-.25,2.79,19.2,19.2,0,0,1-.49,2.39,4.28,4.28,0,0,1-1.17,2.16,3,3,0,0,1-2.32.5c-.94-.1-1.84-.2-2.65-.31l-1.74-.23-.45-.06-.2,0-.07,0c-.08,0-.16,0-.18-.08v-.14s0,0,0-.17a3.61,3.61,0,0,0-.22-.44l-1.2,1.94c1.39.19,2.84.32,4.33.39.75,0,1.51.06,2.27.06a9.09,9.09,0,0,0,1.33,0,2.78,2.78,0,0,0,1.88-1.07l-.1.11a4.81,4.81,0,0,0,1-1.61,11.43,11.43,0,0,0,.42-1.44,27.6,27.6,0,0,0,.49-2.76c.24-1.82.38-3.63.51-5.45.22-3.6.44-7.19.65-10.64,0-.65.07-1.3.11-2,0-1.14.1-2.29.16-3.48h-7.08l-5.42-.07-6.68,0h-.08v.22l0,.3-.06.6-.14,1.2-.07.59,0,.34-.09.64c-.12.85-.3,1.68-.47,2.52a37.49,37.49,0,0,1-1.42,4.89,31.75,31.75,0,0,1-5,8.82,36,36,0,0,1-3.54,3.78c-.64.6-1.33,1.15-2,1.73l-1,.76s-.06.07-.09.06l0,0-.23-.15.05,2.29a41.61,41.61,0,0,0,7.81-7.19,31.27,31.27,0,0,0,6.32-12.76c.41-1.56.79-3.18,1-4.74l.11-.67c0-.32.09-.65.13-1l.12-1,.06-.47,0-.23c0-.06.07-.2,0-.16l-3.25,0c-4,0-7.45.08-10.74.19l10.48-.15h.77c.22,0,.28,0,.21,0l-.19,0-.28,0-.66.06c-1,.09-2.66.18-3.57.22s-2-.21-2.77-.16c-1.69,0-3.24.11-5,.18h-.09l.67.68c0-.68.19-.61.17-1a2.53,2.53,0,0,1,0-.28l-.83.84c2.33-.07,4.15-.35,5.67-.29l3.34.11c.66,0,1.32,0,2,0l1.34-.06a1.27,1.27,0,0,1-.61-.25l2.62.08-2.62-.08a1.27,1.27,0,0,0,.61.25l1.61,0h.42c.07,0,.16,0,.2,0v-.22c0-.29,0-.59,0-.88,0-.94,0-1.9,0-2.86v-2.69c0-.9,0-1.79-.07-2.66l0,.05a47.46,47.46,0,0,1-.26,6.15c.08-.92.15-.8.13.24l-.15.8a45,45,0,0,1,.19-5.36s0-.78-.08-1.16c0-.58.11-.55.17-.67,0-.4,0-.8,0-1.21C1724.71,823.86,1724.55,826.54,1724.55,826.54Z"/><path class="cls-7" d="M1710.24,833.42v-.56h0v1.48h.12l2.17,0a12.93,12.93,0,0,0-2.17-.07h-.06v-.06C1710.26,834,1710.25,833.69,1710.24,833.42Z"/></g><path class="cls-8" d="M85,1006.17c-4.63,4.74-10.92,13-14.34,26.69a114.27,114.27,0,0,0,129.8-.85,58.84,58.84,0,0,0-13-23.17C162.79,982.22,110.44,980.05,85,1006.17Z"/><path class="cls-1" d="M85,1001.67c-7.24,7.54-11.81,16.78-14.47,26.85-.37,1.38-1.28,7.89.13,8.84a115.83,115.83,0,0,0,129.8-.85c1.35-.94.55-7.47.13-8.84-7.42-23.92-27.58-38.84-51.73-43.16-22.3-4-47.44.72-63.86,17.16-.81.81-.5,3.45-.5,4.5,0,.49.61,4.38.5,4.5,16.11-16.13,40.62-20.95,62.58-17.38,24.5,4,45.22,18.77,52.74,43.06l.14-8.84a115.83,115.83,0,0,1-129.8.85l.13,8.84c2.62-9.92,7.07-19.09,14.21-26.53.8-.84.49-3.43.49-4.5C85.46,1005.66,84.84,1001.8,85,1001.67Z"/><path class="cls-8" d="M23.24,875.47C22.18,883.24,15,942,52.52,986.76c34.26,40.82,89.39,50.42,133.15,28.52C235.2,990.49,264.11,928.36,254,865L35.8,872.82"/><path class="cls-1" d="M22.89,872.29C15.81,924.22,31.4,983.05,77,1013.14a109.85,109.85,0,0,0,91.6,13.42c30.07-9.09,54.3-31.31,69.19-58.6,17.66-32.35,22-70.7,16.43-106.81a.79.79,0,0,0-.25-.61L35.8,868.32c-.82,0-.65,9,0,9l162.65-5.8,40.66-1.45,8.93-.32c1.59-.06,4.73-.8,5.94.74.46.58.45,3.31.54,4a129.09,129.09,0,0,1,.94,19,146.78,146.78,0,0,1-15.58,61.39c-17.24,34.41-48.88,60.91-87.62,66.33-40.37,5.65-80.8-12.4-104.67-45.22-19.86-27.31-28.56-63.83-24-97.29.26-1.85.6-4.57,0-6.36-.38-1.15-.44-1.91-.7,0Z"/><ellipse class="cls-8" cx="139.37" cy="871.25" rx="116.27" ry="35.83"/><path class="cls-1" d="M255.16,870.05c-.08,2.84-4.9,7.76-7.81,10a66,66,0,0,1-16.4,8.76c-17,6.7-35.39,9.86-53.47,11.79a362.2,362.2,0,0,1-67.56.81c-19-1.53-38.29-4.39-56.43-10.51-9.89-3.35-24.29-8.46-29-18.81-.47-1-.85-4.05-.85-.85s.38.17.85-.85a19,19,0,0,1,4.19-5.6c4.11-4,9.29-6.79,14.45-9.14,15.84-7.2,33.47-10.61,50.62-12.87a357.48,357.48,0,0,1,68-2.21c21.59,1.29,43.63,4.17,64.17,11.22,6.87,2.35,13.76,5.21,19.76,9.37a31.08,31.08,0,0,1,6.27,5.51,17.15,17.15,0,0,1,2.14,3.15,23.68,23.68,0,0,0,1.15,2.62c0,.48,0,3.43.61,3.14s.36-5,.34-5.54c-.31-11.88-9.45-18.22-19.47-22.93-17.31-8.14-36.92-11.63-55.77-13.85a358.69,358.69,0,0,0-76.19-.73c-19.75,1.91-40.07,5.17-58.52,12.79-9.5,3.92-22,10.07-23.35,21.57-.57,4.89-.55,10.61,2,15s7.08,7.81,11.47,10.4c15.45,9.14,34.25,12.93,51.76,15.6a351.66,351.66,0,0,0,74.57,3c23.16-1.45,47.24-4.58,68.93-13.26,11.58-4.63,24.25-11.29,24.61-25.16,0-1,.52-4.85-.34-5.54C255.27,866.51,255.16,869.81,255.16,870.05Z"/><path class="cls-9" d="M41,882.14s113.88-37.65,188,4C229,886.17,138.28,917.24,41,882.14Z"/><path d="M165.17,561.56s-.06,3.15-.12,4.33c-.74,28.06-1.55,38.44-4.2,42a9.76,9.76,0,0,1-7,4.33,54.71,54.71,0,0,1-10.38.3A22.33,22.33,0,0,0,140.2,603c4.08.31,7.67.31,9.46.31a3.26,3.26,0,0,0,2.78-1.12c1.85-2,2.66-11.37,3.22-31.77H126.05q-1.86,3.35-3.9,6.31h24V601h-18v4.14h-8.72v-24.6a53.36,53.36,0,0,1-3.83,4.26,74.29,74.29,0,0,0-7.73-6.37c6.62-5.5,12.24-14.89,15.21-24.66l9.39,2.35c-.62,1.85-1.29,3.65-2,5.44Zm-37.08,23.18V593h9.08v-8.28Z"/><path d="M167.46,649.71v8.59H124.62c-.24,10.45-2,24.73-9,33.32a37.38,37.38,0,0,0-7.54-6.12c6.74-8.35,7.23-21,7.23-30.11V637.78c14.9-.68,31.16-2.35,41.35-5l7.24,7.36c-11.5,2.9-25.84,4.45-39.19,5.25v4.33ZM126.91,664h36.66v27.19H154v-2.34H136v2.59h-9.09Zm9.09,8.28v8.28h18v-8.28Z"/><path d="M160.66,746.32a38.22,38.22,0,0,1-12.73,13.36,105,105,0,0,0,19.16,3.09,37.59,37.59,0,0,0-5.07,7.85c-9.33-1-17.37-2.85-24.23-5.81a103.33,103.33,0,0,1-24.48,5.81,30.38,30.38,0,0,0-4.2-7.91,106.55,106.55,0,0,0,19.35-3.16,44.09,44.09,0,0,1-9.34-9h-4.63V742.8h39l1.42-.31Zm-35-17.92a39,39,0,0,1-8.78,12.11,48.7,48.7,0,0,0-6.93-4.69,24.57,24.57,0,0,0,7.67-9.59Zm.18-3H111.09v-7.85h23c-.62-1.55-1.36-3.22-2-4.57l8.84-2c1.11,2,2.54,4.7,3.34,6.55h20.89v7.85h-15v3.89l4.82-3.15a59.87,59.87,0,0,1,10.63,9.34l-6.73,4.94a57.56,57.56,0,0,0-8.72-8.65v9.89H141V725.37H135v16.26h-9.09Zm3.77,25.22a36,36,0,0,0,8.53,5.56,33.8,33.8,0,0,0,8.53-5.56Z"/><path d="M132.91,807.4c-2.66,17.18-9,30.29-17.68,37a35.21,35.21,0,0,0-7.29-6.92c6.73-4.7,11.62-12.73,14.15-22.81H110.28v-9.09h15l1.61-.31Zm31.52-.37a177,177,0,0,1-14.65,12.85,42,42,0,0,0,18.48,15.83,38.87,38.87,0,0,0-6.73,8.41c-8-4.27-13.85-10.7-18.3-18.67V838.3c0,5-.86,7.61-3.65,9.22s-6.86,2-12.05,2a37.12,37.12,0,0,0-3.34-10.07c3.34.19,6.74.19,8,.19,1.05,0,1.48-.38,1.48-1.43V790.77h9.58V806c.74,2.29,1.61,4.45,2.53,6.61a83.59,83.59,0,0,0,10.33-11.49Z"/><path d="M128.4,905.75a39.09,39.09,0,0,0,3.52,7.72c-11.68,10.57-14,12.67-15.21,14.34a29,29,0,0,0-4.88-7,10.4,10.4,0,0,0,3.65-7.42V897.22h-6.43v-8.6h14.83v21.21Zm-7.24-19.66c-2-2.84-6.55-7.17-9.89-10.26l5.75-5.44c3.34,2.78,8,6.8,10.26,9.52Zm31.65,10.51v7.6H165v24h-9.52v-1.8H141.56v2h-9V904.2h11.25v-7.6H128.64v-8.47h15.15v-7.36c-4,.37-8,.68-11.75.87a31,31,0,0,0-2.35-7.36c10.64-.74,22.13-2.28,29.8-4.39l5.87,7.3c-3.83,1-8.1,1.79-12.55,2.47v8.47h14.47v8.47Zm2.66,15.7H141.56v6.06h13.91Z"/><path d="M156.71,997.67c2.22,0,3.21-.87,3.46-8.29a27.49,27.49,0,0,0,8,2.85c-.93,11.68-4.33,14.21-12,14.21h-11c-9.21,0-13.36-3.77-13.36-9.45,0-3.65.81-7.18,13.6-18.18h-9.21v-6.67c-.43.49-.8.92-1.23,1.36a59.13,59.13,0,0,0-4.64-4v22.25H119v5.07h-8.16V954h19.47v11a45.12,45.12,0,0,0,8.72-16.2l8.84,2.16c-.68,2-1.49,4.08-2.35,6.06H166v8.35H141.13a54.56,54.56,0,0,1-3.59,5.19h19.35l2-.25,6,3.4a8.06,8.06,0,0,1-1.18,1.55c-21.08,15.57-22.62,18.42-22.62,20.46,0,1.48,1.42,2,3.89,2Zm-34.5-35H119V983h3.21Z"/><path d="M157.88,1074.81a124,124,0,0,0-11.37-10,46.51,46.51,0,0,1-15.46,9.89c3.9,1.42,9,1.67,14.53,1.67a160.8,160.8,0,0,0,22-1.67c-1.05,2.59-2.53,7.29-2.65,9.89-4.21.31-13.35.68-19.72.68-7.79,0-13-.8-17.62-3.09-3-1.55-5.13-3.28-6.55-3.28-1.92,0-4.7,4.21-6.8,7.6l-6.24-9a31,31,0,0,1,8.09-5.87v-12.86h-6.42v-8.28h15v20.89c1.11.62,2.41,1.42,4.14,2.29a11.84,11.84,0,0,0,1.3.62,43.69,43.69,0,0,0-4.83-7.17,38.42,38.42,0,0,0,14.22-7.79c-4.39-3.28-8.78-6.55-12.67-9.27l6.06-5.32c3.52,2.41,7.79,5.32,12.05,8.28a36.63,36.63,0,0,0,4.08-8.59h-24v-8.34H140.2a52.55,52.55,0,0,0-2.59-6.25l8.65-2.72a39.88,39.88,0,0,1,4,9h15.51v8.34h-7.35a56,56,0,0,1-6.37,13.66,150.75,150.75,0,0,1,12.61,10.14Zm-41.66-44.75c3,2.78,7,6.8,8.84,9.64l-7.67,5.38c-1.54-2.78-5.31-7.11-8.28-10.2Z"/><line class="cls-10" x1="1781.04" y1="992" x2="1781.04" y2="953"/></g></svg>